<svg xmlns="http://www.w3.org/2000/svg" version="1.1" xmlns:xlink="http://www.w3.org/1999/xlink"
     width="1000" height="153" viewBox="0 0 1000 153">
    <g transform="matrix(1,0,0,1,-23.333276468218912,-0.23743503013383815)">
        <svg viewBox="0 0 405 62" data-background-color="#ffffff" preserveAspectRatio="xMidYMid meet" height="153"
             width="1000" xmlns="http://www.w3.org/2000/svg" xmlns:xlink="http://www.w3.org/1999/xlink">
            <g id="tight-bounds" transform="matrix(1,0,0,1,9.449976969628665,0.23120415094854252)">
                <svg viewBox="0 0 395.52 61.537591698102894" height="61.537591698102894" width="395.52">
                    <g>
                        <svg viewBox="0 0 513.1720224472566 79.84266380524113" height="61.537591698102894"
                             width="395.52">
                            <g transform="matrix(1,0,0,1,117.6520224472566,11.034695214761982)">
                                <svg viewBox="0 0 395.52 57.77327337571717" height="57.77327337571717" width="395.52">
                                    <g id="textblocktransform">
                                        <svg viewBox="0 0 395.52 57.77327337571717" height="57.77327337571717"
                                             width="395.52" id="textblock">
                                            <g>
                                                <svg viewBox="0 0 395.52 57.77327337571717" height="57.77327337571717"
                                                     width="395.52">
                                                    <g transform="matrix(1,0,0,1,0,0)">
                                                        <svg width="395.52"
                                                             viewBox="0.8500000238418579 -37.150001525878906 323.66998291015625 47.10000228881836"
                                                             height="57.77327337571717" data-palette-color="#bd5a42">
                                                            <g class="wordmark-text-0" data-fill-palette-color="primary"
                                                               id="text-0">
                                                                <path d="M17.55-4.15L18.8-1.6Q17.8-0.7 16.32-0.23 14.85 0.25 13.25 0.25L13.25 0.25Q9.55 0.25 7.55-1.75 5.55-3.75 5.55-7.4L5.55-7.4 5.55-23.3 0.85-23.3 0.85-26.3 5.55-26.3 5.55-32.05 9.1-32.05 9.1-26.3 17.1-26.3 17.1-23.3 9.1-23.3 9.1-7.6Q9.1-5.25 10.28-4.03 11.45-2.8 13.65-2.8L13.65-2.8Q14.75-2.8 15.78-3.15 16.8-3.5 17.55-4.15L17.55-4.15ZM34.45-26.5Q39.6-26.5 42.35-23.93 45.1-21.35 45.1-16.3L45.1-16.3 45.1 0 41.7 0 41.7-4.1Q40.5-2.05 38.17-0.9 35.85 0.25 32.65 0.25L32.65 0.25Q28.25 0.25 25.65-1.85 23.05-3.95 23.05-7.4L23.05-7.4Q23.05-10.75 25.47-12.8 27.9-14.85 33.2-14.85L33.2-14.85 41.55-14.85 41.55-16.45Q41.55-19.85 39.65-21.63 37.75-23.4 34.1-23.4L34.1-23.4Q31.6-23.4 29.3-22.58 27-21.75 25.35-20.3L25.35-20.3 23.75-22.95Q25.75-24.65 28.55-25.58 31.35-26.5 34.45-26.5L34.45-26.5ZM33.2-2.55Q36.2-2.55 38.35-3.93 40.5-5.3 41.55-7.9L41.55-7.9 41.55-12.2 33.3-12.2Q26.55-12.2 26.55-7.5L26.55-7.5Q26.55-5.2 28.3-3.88 30.05-2.55 33.2-2.55L33.2-2.55ZM61.8 0.25Q58.59 0.25 55.67-0.68 52.75-1.6 51.09-3L51.09-3 52.7-5.8Q54.34-4.5 56.84-3.68 59.34-2.85 62.05-2.85L62.05-2.85Q65.65-2.85 67.37-3.98 69.09-5.1 69.09-7.15L69.09-7.15Q69.09-8.6 68.15-9.43 67.2-10.25 65.75-10.68 64.3-11.1 61.9-11.5L61.9-11.5Q58.7-12.1 56.75-12.73 54.8-13.35 53.42-14.85 52.05-16.35 52.05-19L52.05-19Q52.05-22.3 54.8-24.4 57.55-26.5 62.45-26.5L62.45-26.5Q65-26.5 67.55-25.83 70.09-25.15 71.75-24.05L71.75-24.05 70.2-21.2Q66.95-23.45 62.45-23.45L62.45-23.45Q59.05-23.45 57.32-22.25 55.59-21.05 55.59-19.1L55.59-19.1Q55.59-17.6 56.57-16.7 57.55-15.8 59-15.38 60.45-14.95 63-14.5L63-14.5Q66.15-13.9 68.05-13.3 69.95-12.7 71.3-11.25 72.65-9.8 72.65-7.25L72.65-7.25Q72.65-3.8 69.77-1.78 66.9 0.25 61.8 0.25L61.8 0.25ZM91.79-4.15L93.04-1.6Q92.04-0.7 90.57-0.23 89.09 0.25 87.49 0.25L87.49 0.25Q83.79 0.25 81.79-1.75 79.79-3.75 79.79-7.4L79.79-7.4 79.79-23.3 75.09-23.3 75.09-26.3 79.79-26.3 79.79-32.05 83.34-32.05 83.34-26.3 91.34-26.3 91.34-23.3 83.34-23.3 83.34-7.6Q83.34-5.25 84.52-4.03 85.69-2.8 87.89-2.8L87.89-2.8Q88.99-2.8 90.02-3.15 91.04-3.5 91.79-4.15L91.79-4.15ZM118.09-26.3L121.59-26.3 108.44 3.15Q106.84 6.85 104.74 8.4 102.64 9.95 99.69 9.95L99.69 9.95Q97.79 9.95 96.14 9.35 94.49 8.75 93.29 7.55L93.29 7.55 94.94 4.9Q96.94 6.9 99.74 6.9L99.74 6.9Q101.54 6.9 102.82 5.9 104.09 4.9 105.19 2.5L105.19 2.5 106.34-0.05 94.59-26.3 98.29-26.3 108.19-3.95 118.09-26.3Z"
                                                                      fill="#bd5a42"
                                                                      data-fill-palette-color="primary"></path>
                                                                <path d="M135.74 9.95Q134.09 9.95 132.61 9.53 131.14 9.1 130.19 8.25L130.19 8.25 131.44 5.55Q132.99 6.9 135.54 6.9L135.54 6.9Q137.64 6.9 138.76 5.65 139.89 4.4 139.89 1.95L139.89 1.95 139.89-26.3 143.44-26.3 143.44 1.95Q143.44 5.65 141.44 7.8 139.44 9.95 135.74 9.95L135.74 9.95ZM141.69-32.1Q140.59-32.1 139.84-32.85 139.09-33.6 139.09-34.65L139.09-34.65Q139.09-35.65 139.84-36.4 140.59-37.15 141.69-37.15L141.69-37.15Q142.79-37.15 143.54-36.43 144.29-35.7 144.29-34.7L144.29-34.7Q144.29-33.6 143.54-32.85 142.79-32.1 141.69-32.1L141.69-32.1ZM164.09 0.25Q160.29 0.25 157.24-1.48 154.18-3.2 152.44-6.25 150.69-9.3 150.69-13.15L150.69-13.15Q150.69-17 152.44-20.05 154.18-23.1 157.24-24.8 160.29-26.5 164.09-26.5L164.09-26.5Q167.89-26.5 170.93-24.8 173.99-23.1 175.71-20.05 177.43-17 177.43-13.15L177.43-13.15Q177.43-9.3 175.71-6.25 173.99-3.2 170.93-1.48 167.89 0.25 164.09 0.25L164.09 0.25ZM164.09-2.9Q166.89-2.9 169.11-4.17 171.34-5.45 172.59-7.8 173.84-10.15 173.84-13.15L173.84-13.15Q173.84-16.15 172.59-18.5 171.34-20.85 169.11-22.13 166.89-23.4 164.09-23.4L164.09-23.4Q161.29-23.4 159.06-22.13 156.84-20.85 155.56-18.5 154.29-16.15 154.29-13.15L154.29-13.15Q154.29-10.15 155.56-7.8 156.84-5.45 159.06-4.17 161.29-2.9 164.09-2.9L164.09-2.9ZM204.83-26.3L208.38-26.3 208.38 0 204.98 0 204.98-4.8Q203.58-2.4 201.13-1.07 198.68 0.25 195.53 0.25L195.53 0.25Q190.38 0.25 187.41-2.63 184.43-5.5 184.43-11.05L184.43-11.05 184.43-26.3 187.98-26.3 187.98-11.4Q187.98-7.25 190.03-5.1 192.08-2.95 195.88-2.95L195.88-2.95Q200.03-2.95 202.43-5.48 204.83-8 204.83-12.5L204.83-12.5 204.83-26.3ZM221.73-21.15Q222.98-23.8 225.46-25.15 227.93-26.5 231.58-26.5L231.58-26.5 231.58-23.05 230.73-23.1Q226.58-23.1 224.23-20.55 221.88-18 221.88-13.4L221.88-13.4 221.88 0 218.33 0 218.33-26.3 221.73-26.3 221.73-21.15ZM251.78-26.5Q256.73-26.5 259.65-23.63 262.58-20.75 262.58-15.25L262.58-15.25 262.58 0 259.03 0 259.03-14.9Q259.03-19 256.98-21.15 254.93-23.3 251.13-23.3L251.13-23.3Q246.88-23.3 244.4-20.78 241.93-18.25 241.93-13.8L241.93-13.8 241.93 0 238.38 0 238.38-26.3 241.78-26.3 241.78-21.45Q243.23-23.85 245.8-25.18 248.38-26.5 251.78-26.5L251.78-26.5ZM295.18-13.15L295.12-12.05 273.12-12.05Q273.43-7.95 276.28-5.43 279.12-2.9 283.47-2.9L283.47-2.9Q285.93-2.9 287.97-3.78 290.03-4.65 291.53-6.35L291.53-6.35 293.53-4.05Q291.78-1.95 289.15-0.85 286.53 0.25 283.37 0.25L283.37 0.25Q279.33 0.25 276.2-1.48 273.08-3.2 271.33-6.25 269.58-9.3 269.58-13.15L269.58-13.15Q269.58-17 271.25-20.05 272.93-23.1 275.85-24.8 278.78-26.5 282.43-26.5L282.43-26.5Q286.08-26.5 288.97-24.8 291.87-23.1 293.53-20.08 295.18-17.05 295.18-13.15L295.18-13.15ZM282.43-23.45Q278.62-23.45 276.05-21.03 273.47-18.6 273.12-14.7L273.12-14.7 291.78-14.7Q291.43-18.6 288.85-21.03 286.28-23.45 282.43-23.45L282.43-23.45ZM321.02-26.3L324.52-26.3 311.37 3.15Q309.77 6.85 307.67 8.4 305.57 9.95 302.62 9.95L302.62 9.95Q300.72 9.95 299.07 9.35 297.42 8.75 296.22 7.55L296.22 7.55 297.87 4.9Q299.87 6.9 302.67 6.9L302.67 6.9Q304.47 6.9 305.75 5.9 307.02 4.9 308.12 2.5L308.12 2.5 309.27-0.05 297.52-26.3 301.22-26.3 311.12-3.95 321.02-26.3Z"
                                                                      fill="#003c3b"
                                                                      data-fill-palette-color="secondary"></path>
                                                            </g>
                                                        </svg>
                                                    </g>
                                                </svg>
                                            </g>
                                        </svg>
                                    </g>
                                </svg>
                            </g>
                            <g>
                                <svg viewBox="0 0 85.16420246132469 79.84266380524113" height="79.84266380524113"
                                     width="85.16420246132469">
                                    <g>
                                        <svg xmlns="http://www.w3.org/2000/svg" data-name="Layer 1"
                                             viewBox="0.00017439885414205492 3.998490810394287 127.99964904785156 120.00151062011719"
                                             x="0" y="0" height="79.84266380524113" width="85.16420246132469"
                                             class="icon-icon-0" data-fill-palette-color="accent" id="icon-0">
                                            <path d="M97.343 103.493q-2.136 1.336-4.389 2.5c4.54 1.615 7.046 3.458 7.046 5.007 0 3.669-14.024 9-36 9s-36-5.33-36-9c0-1.577 2.598-3.461 7.298-5.096q-2.242-1.182-4.379-2.535C26.632 105.371 24 107.919 24 111 24 119.535 44.122 124 64 124s40-4.465 40-13C104 107.982 101.475 105.476 97.343 103.493Z"
                                                  fill="#003c3b" data-fill-palette-color="accent"></path>
                                            <path d="M91.002 92.001a1.989 1.989 0 0 0 1.082-0.32 47.121 47.121 0 0 0 18.787-22.972 2 2 0 0 0-3.742-1.415A43.143 43.143 0 0 1 89.916 88.32 2 2 0 0 0 91.002 92.001Z"
                                                  fill="#003c3b" data-fill-palette-color="accent"></path>
                                            <path d="M117.573 64.002C111.892 83.284 97.064 98.34 77.707 103.309a1.999 1.999 0 0 0-1.503 1.937V109.704a0.272 0.272 0 0 1-0.23 0.296H52.026a0.272 0.272 0 0 1-0.23-0.296v-4.522a2 2 0 0 0-1.485-1.933C31.353 98.197 16.607 83.172 10.67 64.002H7c-0.173 0-0.341-0.018-0.512-0.026 5.937 20.534 21.326 36.822 41.308 42.721V109.704a4.268 4.268 0 0 0 4.23 4.296H75.974A4.268 4.268 0 0 0 80.204 109.704v-2.928c20.398-5.814 35.869-22.143 41.538-42.812-0.246 0.017-0.491 0.038-0.742 0.038Z"
                                                  fill="#003c3b" data-fill-palette-color="accent"></path>
                                            <path d="M110.313 12.702a7.932 7.932 0 0 1 4.454-4.224 6.993 6.993 0 0 1 5.482 0.17 6.455 6.455 0 0 1 3.438 3.981 7.41 7.41 0 0 1-0.744 5.904L109.222 42.002h4.633L126.396 20.552a11.414 11.414 0 0 0 1.113-9.106A10.412 10.412 0 0 0 121.957 5.031a10.977 10.977 0 0 0-8.593-0.299 11.953 11.953 0 0 0-6.713 6.363L93.085 42.002H97.453Z"
                                                  fill="#003c3b" data-fill-palette-color="accent"></path>
                                            <path d="M121 46.002H7A7 7 0 1 0 7 60.002H121A7 7 0 1 0 121 46.002Zm0 10H7a3 3 0 1 1 0-6H121a3 3 0 1 1 0 6Z"
                                                  fill="#003c3b" data-fill-palette-color="accent"></path>
                                            <path d="M22 38.002a2 2 0 0 0 4 0 5.171 5.171 0 0 1 1.562-3.752 9.229 9.229 0 0 0 0-12.5 5.284 5.284 0 0 1 0-7.5A9.047 9.047 0 0 0 30 8.003a2 2 0 0 0-4 0 5.161 5.161 0 0 1-1.562 3.747 9.226 9.226 0 0 0 0 12.498 5.289 5.289 0 0 1 0 7.504A9.05 9.05 0 0 0 22 38.002Z"
                                                  fill="#003c3b" data-fill-palette-color="accent"></path>
                                            <path d="M37 38.002a2 2 0 0 0 4 0 5.171 5.171 0 0 1 1.562-3.752 9.229 9.229 0 0 0 0-12.5 5.284 5.284 0 0 1 0-7.5A9.047 9.047 0 0 0 45 8.003a2 2 0 0 0-4 0 5.161 5.161 0 0 1-1.562 3.747 9.226 9.226 0 0 0 0 12.498 5.289 5.289 0 0 1 0 7.504A9.05 9.05 0 0 0 37 38.002Z"
                                                  fill="#003c3b" data-fill-palette-color="accent"></path>
                                            <path d="M52 38.002a2 2 0 0 0 4 0 5.171 5.171 0 0 1 1.562-3.752 9.229 9.229 0 0 0 0-12.5 5.284 5.284 0 0 1 0-7.5A9.047 9.047 0 0 0 60 8.003a2 2 0 0 0-4 0 5.161 5.161 0 0 1-1.562 3.747 9.226 9.226 0 0 0 0 12.498 5.289 5.289 0 0 1 0 7.504A9.05 9.05 0 0 0 52 38.002Z"
                                                  fill="#003c3b" data-fill-palette-color="accent"></path>
                                            <path d="M66 38.002a2 2 0 0 0 4 0 5.171 5.171 0 0 1 1.562-3.752 9.229 9.229 0 0 0 0-12.5 5.284 5.284 0 0 1 0-7.5A9.047 9.047 0 0 0 74 8.003a2 2 0 0 0-4 0 5.161 5.161 0 0 1-1.562 3.747 9.226 9.226 0 0 0 0 12.498 5.289 5.289 0 0 1 0 7.504A9.05 9.05 0 0 0 66 38.002Z"
                                                  fill="#003c3b" data-fill-palette-color="accent"></path>
                                        </svg>
                                    </g>
                                </svg>
                            </g>
                        </svg>
                    </g>
                    <defs></defs>
                </svg>
                <rect width="395.52" height="61.537591698102894" fill="none" stroke="none" visibility="hidden"></rect>
            </g>
        </svg>
    </g>
</svg>